<svg width="888" height="742" viewBox="0 0 888 742" fill="none" xmlns="http://www.w3.org/2000/svg">
<g clip-path="url(#clip0)">
<path d="M365.896 174.38H361.864V63.9273C361.864 55.5322 360.211 47.2193 356.998 39.4633C353.785 31.7073 349.077 24.66 343.14 18.7238C337.204 12.7876 330.157 8.07875 322.401 4.86612C314.645 1.65348 306.332 -2.62641e-05 297.937 3.12895e-10H63.9274C55.5323 -2.62641e-05 47.2195 1.65348 39.4634 4.86612C31.7074 8.07876 24.6601 12.7876 18.7239 18.7238C12.7877 24.66 8.0788 31.7073 4.86615 39.4633C1.6535 47.2194 -1.31322e-05 55.5322 0 63.9273V669.881C-7.87929e-06 678.276 1.65351 686.589 4.86617 694.345C8.07882 702.101 12.7877 709.148 18.7239 715.084C24.6601 721.021 31.7074 725.729 39.4634 728.942C47.2195 732.155 55.5323 733.808 63.9274 733.808H297.937C306.332 733.808 314.645 732.155 322.401 728.942C330.157 725.729 337.204 721.021 343.14 715.084C349.077 709.148 353.785 702.101 356.998 694.345C360.211 686.589 361.864 678.276 361.864 669.881V253.003H365.896V174.38Z" fill="#E6E6E6"/>
<path d="M300.516 16.6317H269.97C271.375 20.0757 271.911 23.8122 271.532 27.5122C271.152 31.2122 269.869 34.7621 267.794 37.8491C265.719 40.9362 262.917 43.4657 259.635 45.2147C256.352 46.9638 252.69 47.8788 248.971 47.879H114.91C111.19 47.8788 107.528 46.9638 104.245 45.2147C100.963 43.4657 98.1608 40.9362 96.0862 37.8492C94.0115 34.7621 92.7279 31.2122 92.3484 27.5122C91.9689 23.8122 92.5051 20.0757 93.9098 16.6317H65.3798C59.1105 16.6317 52.9025 17.8665 47.1104 20.2657C41.3183 22.6648 36.0555 26.1814 31.6224 30.6144C27.1893 35.0475 23.6728 40.3103 21.2736 46.1024C18.8745 51.8945 17.6396 58.1024 17.6396 64.3718V669.436C17.6396 675.706 18.8745 681.914 21.2736 687.706C23.6728 693.498 27.1893 698.761 31.6224 703.194C36.0555 707.627 41.3183 711.143 47.1104 713.543C52.9025 715.942 59.1105 717.177 65.3798 717.177H300.516C306.786 717.177 312.994 715.942 318.786 713.543C324.578 711.143 329.841 707.627 334.274 703.194C338.707 698.761 342.223 693.498 344.623 687.706C347.022 681.914 348.256 675.706 348.256 669.436V64.3718C348.256 58.1024 347.022 51.8945 344.623 46.1024C342.223 40.3103 338.707 35.0475 334.274 30.6144C329.841 26.1814 324.578 22.6648 318.786 20.2657C312.994 17.8665 306.786 16.6317 300.516 16.6317Z" fill="white"/>
<path d="M113.672 139.635H99.6331C99.1395 139.635 98.666 139.831 98.317 140.18C97.9679 140.529 97.7718 141.002 97.7718 141.496V147.658C97.7718 148.152 97.9679 148.625 98.317 148.975C98.666 149.324 99.1395 149.52 99.6331 149.52H101.96V158.753H111.346V149.52H113.672C114.166 149.52 114.639 149.324 114.989 148.975C115.338 148.625 115.534 148.152 115.534 147.658V141.496C115.534 141.002 115.338 140.529 114.989 140.18C114.639 139.831 114.166 139.635 113.672 139.635Z" fill="#E6E6E6"/>
<path d="M127.734 196.032C119.136 183.45 114.741 168.47 115.177 153.238C115.185 152.887 115.071 152.543 114.855 152.266C114.638 151.989 114.332 151.796 113.989 151.719V149.056H99.1619V151.682H98.9576C98.5541 151.682 98.1673 151.843 97.8823 152.129C97.5974 152.415 97.4376 152.802 97.4381 153.205C97.4382 153.242 97.4396 153.279 97.4423 153.316C98.6104 169.599 94.666 184.202 85.6089 197.124C85.0877 197.866 84.8215 198.758 84.8501 199.665L86.4714 249.816C86.5103 250.935 86.9798 251.995 87.7819 252.776C88.5839 253.556 89.6565 253.997 90.7757 254.006H124.313C125.445 253.997 126.529 253.546 127.333 252.75C128.138 251.953 128.599 250.874 128.62 249.742L129.245 201.049C129.263 199.262 128.736 197.512 127.734 196.032Z" fill="#E6E6E6"/>
<path d="M122.425 212.69H93.2337C92.8016 212.69 92.3746 212.784 91.982 212.964C91.5893 213.145 91.2404 213.408 90.959 213.736C90.6777 214.064 90.4705 214.449 90.3519 214.864C90.2332 215.28 90.2058 215.716 90.2715 216.143L94.6828 244.816H120.013L125.371 216.24C125.452 215.807 125.437 215.361 125.326 214.935C125.216 214.509 125.013 214.112 124.731 213.773C124.45 213.434 124.098 213.162 123.699 212.975C123.301 212.787 122.866 212.69 122.425 212.69Z" fill="white"/>
<path d="M269.957 289.869H255.917C255.424 289.869 254.95 290.065 254.601 290.414C254.252 290.763 254.056 291.237 254.056 291.731V297.893C254.056 298.386 254.252 298.86 254.601 299.209C254.95 299.558 255.424 299.754 255.917 299.754H258.244V308.987H267.63V299.754H269.957C270.45 299.754 270.924 299.558 271.273 299.209C271.622 298.86 271.818 298.386 271.818 297.893V291.731C271.818 291.237 271.622 290.763 271.273 290.414C270.924 290.065 270.45 289.869 269.957 289.869Z" fill="#E6E6E6"/>
<path d="M284.019 346.266C275.42 333.685 271.025 318.705 271.462 303.473C271.47 303.121 271.355 302.778 271.139 302.501C270.922 302.224 270.617 302.031 270.274 301.954V299.291H255.446V301.917H255.242C255.042 301.917 254.844 301.956 254.66 302.033C254.475 302.11 254.308 302.222 254.167 302.364C254.026 302.505 253.914 302.673 253.837 302.858C253.761 303.042 253.722 303.24 253.722 303.44C253.722 303.477 253.724 303.514 253.727 303.551C254.895 319.834 250.95 334.437 241.893 347.358C241.372 348.101 241.106 348.993 241.134 349.899L242.756 400.051C242.795 401.169 243.264 402.23 244.066 403.01C244.868 403.791 245.941 404.232 247.06 404.241H280.597C281.729 404.232 282.813 403.781 283.617 402.984C284.422 402.188 284.884 401.109 284.904 399.977L285.529 351.284C285.547 349.497 285.021 347.746 284.019 346.266Z" fill="#E6E6E6"/>
<path d="M278.71 362.925H249.518C249.086 362.925 248.659 363.018 248.266 363.199C247.874 363.379 247.525 363.643 247.243 363.97C246.962 364.298 246.755 364.683 246.636 365.099C246.518 365.514 246.49 365.951 246.556 366.378L250.967 395.051H276.297L281.655 366.474C281.736 366.041 281.721 365.596 281.611 365.17C281.5 364.744 281.297 364.347 281.016 364.008C280.735 363.669 280.382 363.396 279.983 363.209C279.585 363.022 279.15 362.925 278.71 362.925H278.71Z" fill="white"/>
<path d="M93.935 502.257H87.2755C87.0414 502.257 86.8168 502.35 86.6512 502.515C86.4856 502.681 86.3926 502.906 86.3926 503.14V506.063C86.3926 506.297 86.4856 506.521 86.6512 506.687C86.8168 506.853 87.0414 506.946 87.2755 506.946H88.3791V511.325H92.8314V506.946H93.935C94.1692 506.946 94.3937 506.853 94.5593 506.687C94.7249 506.521 94.8179 506.297 94.8179 506.063V503.14C94.8179 502.906 94.7249 502.681 94.5593 502.515C94.3937 502.35 94.1692 502.257 93.935 502.257Z" fill="#E6E6E6"/>
<path d="M100.605 529.008C96.5267 523.041 94.4417 515.935 94.6489 508.71C94.6526 508.543 94.5985 508.38 94.4958 508.249C94.393 508.117 94.248 508.026 94.0853 507.989V506.726H87.052V507.971H86.9551C86.8603 507.972 86.7665 507.99 86.679 508.027C86.5915 508.063 86.512 508.116 86.4451 508.183C86.3781 508.251 86.3251 508.33 86.2889 508.418C86.2528 508.505 86.2342 508.599 86.2343 508.694C86.2343 508.712 86.235 508.729 86.2363 508.747C86.8855 516.119 84.8964 523.483 80.6232 529.527C80.376 529.879 80.2497 530.302 80.2633 530.732L81.0323 554.521C81.0508 555.051 81.2735 555.554 81.6539 555.925C82.0344 556.295 82.5431 556.504 83.074 556.508H98.9823C99.5192 556.504 100.033 556.29 100.415 555.912C100.797 555.535 101.016 555.023 101.025 554.486L101.322 531.389C101.33 530.541 101.08 529.711 100.605 529.008Z" fill="#E6E6E6"/>
<path d="M98.3157 537.753H83.1366V545.343H98.3157V537.753Z" fill="white"/>
<path d="M124.935 502.257H118.276C118.041 502.257 117.817 502.35 117.651 502.515C117.486 502.681 117.393 502.906 117.393 503.14V506.063C117.393 506.297 117.486 506.521 117.651 506.687C117.817 506.853 118.041 506.946 118.276 506.946H119.379V511.325H123.831V506.946H124.935C125.169 506.946 125.394 506.853 125.559 506.687C125.725 506.521 125.818 506.297 125.818 506.063V503.14C125.818 502.906 125.725 502.681 125.559 502.515C125.394 502.35 125.169 502.257 124.935 502.257Z" fill="#E6E6E6"/>
<path d="M131.605 529.008C127.527 523.041 125.442 515.935 125.649 508.71C125.653 508.543 125.599 508.38 125.496 508.249C125.393 508.117 125.248 508.026 125.085 507.989V506.726H118.052V507.971H117.955C117.86 507.972 117.767 507.99 117.679 508.027C117.591 508.063 117.512 508.116 117.445 508.183C117.378 508.251 117.325 508.33 117.289 508.418C117.253 508.505 117.234 508.599 117.234 508.694C117.234 508.712 117.235 508.729 117.236 508.747C117.886 516.119 115.896 523.483 111.623 529.527C111.376 529.879 111.25 530.302 111.263 530.732L112.032 554.521C112.051 555.051 112.273 555.554 112.654 555.925C113.034 556.295 113.543 556.504 114.074 556.508H129.982C130.519 556.504 131.033 556.29 131.415 555.912C131.797 555.535 132.016 555.023 132.025 554.486L132.322 531.389C132.33 530.541 132.081 529.711 131.605 529.008Z" fill="#E6E6E6"/>
<path d="M129.316 537.753H114.137V545.343H129.316V537.753Z" fill="white"/>
<path d="M155.935 502.257H149.276C149.041 502.257 148.817 502.35 148.651 502.515C148.486 502.681 148.393 502.906 148.393 503.14V506.063C148.393 506.297 148.486 506.521 148.651 506.687C148.817 506.853 149.041 506.946 149.276 506.946H150.379V511.325H154.831V506.946H155.935C156.169 506.946 156.394 506.853 156.559 506.687C156.725 506.521 156.818 506.297 156.818 506.063V503.14C156.818 502.906 156.725 502.681 156.559 502.515C156.394 502.35 156.169 502.257 155.935 502.257Z" fill="#E6E6E6"/>
<path d="M162.605 529.008C158.527 523.041 156.442 515.935 156.649 508.71C156.653 508.543 156.599 508.38 156.496 508.249C156.393 508.117 156.248 508.026 156.085 507.989V506.726H149.052V507.971H148.955C148.86 507.972 148.767 507.99 148.679 508.027C148.591 508.063 148.512 508.116 148.445 508.183C148.378 508.251 148.325 508.33 148.289 508.418C148.253 508.505 148.234 508.599 148.234 508.694C148.234 508.712 148.235 508.729 148.236 508.747C148.886 516.119 146.896 523.483 142.623 529.527C142.376 529.879 142.25 530.302 142.263 530.732L143.032 554.521C143.051 555.051 143.273 555.554 143.654 555.925C144.034 556.295 144.543 556.504 145.074 556.508H160.982C161.519 556.504 162.033 556.29 162.415 555.912C162.797 555.535 163.016 555.023 163.025 554.486L163.322 531.389C163.33 530.541 163.081 529.711 162.605 529.008Z" fill="#E6E6E6"/>
<path d="M160.316 537.753H145.137V545.343H160.316V537.753Z" fill="white"/>
<path d="M245.567 444.137H231.528C231.284 444.137 231.042 444.185 230.816 444.279C230.59 444.372 230.385 444.509 230.212 444.682C230.039 444.855 229.902 445.06 229.808 445.286C229.715 445.512 229.667 445.754 229.667 445.998V452.161C229.667 452.654 229.863 453.128 230.212 453.477C230.561 453.826 231.034 454.022 231.528 454.022H233.855V463.255H243.241V454.022H245.567C246.061 454.022 246.534 453.826 246.883 453.477C247.232 453.128 247.429 452.654 247.429 452.161V445.998C247.429 445.754 247.38 445.512 247.287 445.286C247.193 445.06 247.056 444.855 246.883 444.682C246.711 444.509 246.505 444.372 246.28 444.279C246.054 444.185 245.812 444.137 245.567 444.137Z" fill="#E6E6E6"/>
<path d="M259.629 500.534C251.031 487.953 246.636 472.973 247.072 457.74C247.08 457.389 246.966 457.046 246.749 456.769C246.533 456.492 246.227 456.298 245.884 456.221V453.559H231.057V456.184H230.852C230.653 456.185 230.455 456.224 230.27 456.301C230.086 456.378 229.918 456.49 229.777 456.631C229.636 456.773 229.524 456.941 229.448 457.125C229.372 457.31 229.333 457.508 229.333 457.708C229.333 457.745 229.334 457.782 229.337 457.818C230.505 474.102 226.561 488.704 217.504 501.626C216.983 502.369 216.716 503.26 216.745 504.167L218.366 554.318C218.405 555.437 218.875 556.497 219.677 557.278C220.479 558.059 221.551 558.5 222.671 558.508H256.208C257.34 558.499 258.424 558.048 259.228 557.252C260.032 556.455 260.494 555.376 260.515 554.244L261.14 505.552C261.158 503.764 260.631 502.014 259.629 500.534Z" fill="#E6E6E6"/>
<path d="M254.32 517.193H225.129C224.696 517.193 224.269 517.286 223.877 517.466C223.484 517.647 223.135 517.91 222.854 518.238C222.573 518.566 222.365 518.951 222.247 519.367C222.128 519.782 222.101 520.218 222.166 520.645L226.578 549.319H251.908L257.266 520.742C257.347 520.309 257.332 519.864 257.221 519.438C257.111 519.011 256.908 518.615 256.626 518.276C256.345 517.937 255.993 517.664 255.594 517.477C255.195 517.29 254.76 517.193 254.32 517.193Z" fill="white"/>
<path d="M253.232 260.462H169.544C175.395 228.829 174.049 190.631 169.544 149.551H253.232C248.847 190.631 247.536 228.829 253.232 260.462Z" fill="#E6E6E6"/>
<path d="M211.892 222.148C223.029 222.148 232.058 213.119 232.058 201.982C232.058 190.845 223.029 181.816 211.892 181.816C200.755 181.816 191.726 190.845 191.726 201.982C191.726 213.119 200.755 222.148 211.892 222.148Z" fill="white"/>
<path d="M176.602 407.672H92.9143C98.7652 376.039 97.4191 337.84 92.9143 296.761H176.602C172.217 337.841 170.907 376.039 176.602 407.672Z" fill="#E6E6E6"/>
<path d="M135.262 369.357C146.399 369.357 155.428 360.329 155.428 349.192C155.428 338.054 146.399 329.026 135.262 329.026C124.125 329.026 115.097 338.054 115.097 349.192C115.097 360.329 124.125 369.357 135.262 369.357Z" fill="white"/>
<path d="M300.621 267.52H216.933C222.784 235.887 221.438 197.689 216.933 156.609H300.621C296.236 197.689 294.926 235.887 300.621 267.52Z" fill="#E6E6E6"/>
<path d="M259.281 229.206C270.419 229.206 279.447 220.177 279.447 209.04C279.447 197.903 270.419 188.874 259.281 188.874C248.144 188.874 239.116 197.903 239.116 209.04C239.116 220.177 248.144 229.206 259.281 229.206Z" fill="white"/>
<path d="M300.621 262.479H216.933C222.784 230.846 221.438 192.647 216.933 151.568H300.621C296.236 192.647 294.926 230.846 300.621 262.479Z" fill="#E6E6E6"/>
<path d="M259.281 224.164C270.419 224.164 279.447 215.136 279.447 203.998C279.447 192.861 270.419 183.833 259.281 183.833C248.144 183.833 239.116 192.861 239.116 203.998C239.116 215.136 248.144 224.164 259.281 224.164Z" fill="white"/>
<path d="M300.621 267.52H216.933C222.784 235.887 221.438 197.689 216.933 156.609H300.621C296.236 197.689 294.926 235.887 300.621 267.52Z" fill="#E6E6E6"/>
<path d="M259.281 229.206C270.419 229.206 279.447 220.177 279.447 209.04C279.447 197.903 270.419 188.874 259.281 188.874C248.144 188.874 239.116 197.903 239.116 209.04C239.116 220.177 248.144 229.206 259.281 229.206Z" fill="white"/>
<path d="M319.779 254.413H45.5249V284.661H319.779V254.413Z" fill="#E6E6E6"/>
<path d="M319.779 404.647H45.5249V434.896H319.779V404.647Z" fill="#E6E6E6"/>
<path d="M319.779 554.882H45.5249V585.13H319.779V554.882Z" fill="#E6E6E6"/>
<path d="M796.855 677.599L728.53 629.273C751.573 606.826 772.532 574.862 792.576 538.722L860.9 587.048C833.599 618.054 810.471 648.484 796.855 677.599Z" fill="#6C63FF"/>
<path d="M796.873 626.148C808.011 626.148 817.039 617.119 817.039 605.982C817.039 594.845 808.011 585.816 796.873 585.816C785.736 585.816 776.708 594.845 776.708 605.982C776.708 617.119 785.736 626.148 796.873 626.148Z" fill="white"/>
<path d="M467.262 457.078H459.762C459.499 457.078 459.246 457.183 459.059 457.369C458.873 457.556 458.768 457.809 458.768 458.073V461.365C458.768 461.495 458.794 461.624 458.844 461.745C458.894 461.866 458.967 461.975 459.059 462.068C459.152 462.16 459.261 462.233 459.382 462.283C459.503 462.333 459.632 462.359 459.762 462.359H461.005V467.291H466.02V462.359H467.262C467.526 462.359 467.779 462.254 467.965 462.068C468.152 461.881 468.257 461.628 468.257 461.365V458.073C468.257 457.809 468.152 457.556 467.965 457.369C467.779 457.183 467.526 457.078 467.262 457.078Z" fill="#E6E6E6"/>
<path d="M474.774 487.206C470.181 480.485 467.833 472.483 468.066 464.345C468.071 464.158 468.01 463.974 467.894 463.826C467.778 463.678 467.615 463.575 467.432 463.534V462.111H459.511V463.514H459.402C459.295 463.514 459.189 463.535 459.091 463.576C458.992 463.617 458.903 463.677 458.827 463.753C458.752 463.828 458.692 463.918 458.651 464.017C458.611 464.115 458.59 464.221 458.59 464.328C458.59 464.348 458.591 464.367 458.592 464.387C459.323 472.69 457.083 480.984 452.271 487.79C451.992 488.186 451.85 488.663 451.865 489.147L452.731 515.939C452.752 516.536 453.003 517.103 453.431 517.52C453.86 517.937 454.433 518.172 455.031 518.177H472.947C473.551 518.172 474.13 517.931 474.56 517.506C474.99 517.08 475.237 516.504 475.248 515.899L475.581 489.887C475.591 488.932 475.31 487.997 474.774 487.206Z" fill="#6C63FF"/>
<path opacity="0.2" d="M465.699 458.151C465.699 458.72 465.473 459.265 465.071 459.668C464.668 460.07 464.123 460.296 463.554 460.296C462.985 460.296 462.439 460.07 462.037 459.668C461.634 459.265 461.408 458.72 461.408 458.151" fill="black"/>
<path d="M471.285 492.368H456.161V502.451H471.285V492.368Z" fill="white"/>
<path d="M704.602 561.742H690.563C690.069 561.742 689.596 561.938 689.247 562.287C688.898 562.636 688.702 563.109 688.702 563.603V569.765C688.702 570.259 688.898 570.733 689.247 571.082C689.596 571.431 690.069 571.627 690.563 571.627H692.89V580.86H702.276V571.627H704.602C705.096 571.627 705.569 571.431 705.919 571.082C706.268 570.733 706.464 570.259 706.464 569.765V563.603C706.464 563.109 706.268 562.636 705.919 562.287C705.569 561.938 705.096 561.742 704.602 561.742Z" fill="#E6E6E6"/>
<path d="M718.664 618.139C710.066 605.557 705.671 590.578 706.107 575.345C706.115 574.994 706.001 574.65 705.785 574.373C705.568 574.097 705.262 573.903 704.919 573.826V571.163H690.092V573.789H689.888C689.688 573.789 689.49 573.829 689.305 573.906C689.121 573.982 688.953 574.095 688.812 574.236C688.671 574.378 688.559 574.545 688.483 574.73C688.407 574.915 688.368 575.113 688.368 575.312C688.368 575.349 688.37 575.386 688.372 575.423C689.54 591.707 685.596 606.309 676.539 619.231C676.018 619.973 675.751 620.865 675.78 621.772L677.401 671.923C677.44 673.042 677.91 674.102 678.712 674.883C679.514 675.664 680.586 676.104 681.706 676.113H715.243C716.375 676.104 717.459 675.653 718.263 674.857C719.068 674.06 719.529 672.981 719.55 671.849L720.175 623.156C720.193 621.369 719.666 619.619 718.664 618.139Z" fill="#6C63FF"/>
<path opacity="0.2" d="M701.676 563.75C701.676 564.815 701.253 565.836 700.5 566.589C699.746 567.342 698.725 567.766 697.66 567.766C696.595 567.766 695.574 567.342 694.82 566.589C694.067 565.836 693.644 564.815 693.644 563.75" fill="black"/>
<path d="M713.355 634.797H684.164C683.732 634.797 683.305 634.891 682.912 635.071C682.519 635.252 682.17 635.515 681.889 635.843C681.608 636.171 681.401 636.556 681.282 636.971C681.163 637.387 681.136 637.823 681.201 638.25L685.613 666.923H710.943L716.301 638.347C716.382 637.914 716.367 637.469 716.256 637.042C716.146 636.616 715.943 636.219 715.661 635.881C715.38 635.542 715.028 635.269 714.629 635.082C714.231 634.895 713.796 634.797 713.355 634.797Z" fill="white"/>
<path d="M664.546 677.52H580.858C586.709 645.887 585.363 607.688 580.858 566.608H664.546C660.161 607.688 658.851 645.887 664.546 677.52Z" fill="#6C63FF"/>
<path d="M623.206 639.205C634.344 639.205 643.372 630.177 643.372 619.039C643.372 607.902 634.344 598.874 623.206 598.874C612.069 598.874 603.041 607.902 603.041 619.039C603.041 630.177 612.069 639.205 623.206 639.205Z" fill="white"/>
<path d="M322.243 328.466L341.03 326.758L352.986 297.724L331.637 285.768L322.243 328.466Z" fill="#FFB8B8"/>
<path d="M494.66 408.174C495.285 406.616 495.531 404.932 495.377 403.26C495.223 401.589 494.674 399.978 493.775 398.56C492.876 397.143 491.654 395.959 490.208 395.106C488.762 394.254 487.134 393.757 485.459 393.657L456.289 391.918L451.994 406.2L482.023 414.447C484.532 415.136 487.207 414.878 489.538 413.721C491.869 412.564 493.692 410.589 494.66 408.174Z" fill="#FFB8B8"/>
<path d="M463.339 414.687L463.018 387.887L398.225 377.549L348.31 320.301C345.712 317.323 342.124 315.386 338.209 314.851C334.293 314.315 330.317 315.217 327.015 317.389C325.016 318.704 323.331 320.442 322.077 322.481C320.824 324.519 320.034 326.807 319.762 329.184C319.491 331.562 319.745 333.969 320.506 336.238C321.268 338.506 322.518 340.579 324.169 342.311L365.349 392.989L463.339 414.687Z" fill="#575A89"/>
<path d="M307.726 716.167H324.805L367.168 524.633L411.055 583.802L436.674 711.897H452.9L449.484 574.408L392.268 427.526H335.906C320.504 455.401 308.422 484.135 322.243 513.777L307.726 716.167Z" fill="#2F2E41"/>
<path d="M426.204 727.8C426.016 728.405 425.958 729.042 426.035 729.671C426.111 730.299 426.321 730.904 426.65 731.445C426.979 731.986 427.419 732.451 427.942 732.808C428.464 733.166 429.057 733.408 429.68 733.519L471.473 740.935C473.125 741.237 474.83 740.925 476.267 740.057C477.704 739.189 478.773 737.825 479.274 736.222C479.761 734.691 479.693 733.037 479.082 731.551C478.471 730.065 477.355 728.842 475.932 728.096C466.742 723.378 458.834 716.502 452.884 708.058C448.29 712.335 443.156 711.933 437.705 708.781L431.922 709.504L426.204 727.8Z" fill="#2F2E41"/>
<path d="M299.818 727.8C299.629 728.405 299.571 729.042 299.648 729.671C299.724 730.299 299.934 730.904 300.263 731.445C300.592 731.986 301.032 732.451 301.555 732.808C302.077 733.166 302.67 733.408 303.293 733.519L345.086 740.935C346.738 741.237 348.443 740.925 349.88 740.057C351.317 739.189 352.386 737.825 352.887 736.222C353.374 734.691 353.306 733.037 352.695 731.551C352.084 730.065 350.969 728.842 349.545 728.096C340.356 723.378 332.447 716.502 326.497 708.058C321.903 712.335 316.769 711.933 311.318 708.781L305.535 709.504L299.818 727.8Z" fill="#2F2E41"/>
<path d="M353.413 308.398C366.618 308.398 377.324 297.693 377.324 284.487C377.324 271.281 366.618 260.576 353.413 260.576C340.207 260.576 329.502 271.281 329.502 284.487C329.502 297.693 340.207 308.398 353.413 308.398Z" fill="#FFB8B8"/>
<path d="M332.064 433.931L394.403 432.223L376.095 374.604C387.473 356.364 376.022 338.144 359.817 319.927L347.008 311.387L326.513 309.679C317.639 319.174 312.784 331.735 312.964 344.729C313.369 372.556 318.297 402.848 332.064 433.931Z" fill="#575A89"/>
<path d="M475.291 472.716C476.479 471.529 477.367 470.077 477.883 468.48C478.399 466.883 478.528 465.186 478.259 463.529C477.991 461.872 477.333 460.303 476.339 458.95C475.345 457.598 474.043 456.501 472.542 455.75L446.409 442.675L436.841 454.116L461.205 473.511C463.241 475.132 465.802 475.947 468.4 475.8C470.998 475.653 473.451 474.555 475.291 472.716Z" fill="#FFB8B8"/>
<path d="M443.933 466.382L454.181 441.617L398.679 406.623L375.309 334.355C374.093 330.595 371.555 327.403 368.166 325.371C364.777 323.338 360.766 322.603 356.877 323.301C354.522 323.724 352.288 324.658 350.334 326.039C348.38 327.42 346.753 329.213 345.569 331.292C344.384 333.371 343.67 335.684 343.478 338.069C343.286 340.454 343.619 342.852 344.456 345.094L362.379 407.885L443.933 466.382Z" fill="#575A89"/>
<path d="M314.13 275.093C314.13 284.397 320.173 298.806 327.794 304.982C332.922 309.138 339.698 308.963 342.311 303.274C344.991 297.439 354.231 283.722 370.492 275.093C392.17 263.591 362.804 243.912 342.311 246.913C326.911 249.167 314.13 259.53 314.13 275.093Z" fill="#2F2E41"/>
<path d="M328.648 262.284C338.08 262.284 345.727 254.637 345.727 245.205C345.727 235.772 338.08 228.125 328.648 228.125C319.215 228.125 311.568 235.772 311.568 245.205C311.568 254.637 319.215 262.284 328.648 262.284Z" fill="#2F2E41"/>
<path d="M348.289 239.227C348.287 234.921 346.658 230.775 343.728 227.62C340.799 224.464 336.784 222.533 332.491 222.212C332.915 222.181 333.339 222.148 333.771 222.148C338.301 222.148 342.645 223.947 345.848 227.15C349.051 230.353 350.851 234.697 350.851 239.227C350.851 243.757 349.051 248.101 345.848 251.304C342.645 254.507 338.301 256.306 333.771 256.306C333.339 256.306 332.915 256.273 332.491 256.242C336.784 255.921 340.799 253.99 343.728 250.834C346.658 247.679 348.287 243.533 348.289 239.227Z" fill="#2F2E41"/>
<path d="M353.84 293.027C355.962 293.027 357.682 290.733 357.682 287.903C357.682 285.073 355.962 282.779 353.84 282.779C351.717 282.779 349.997 285.073 349.997 287.903C349.997 290.733 351.717 293.027 353.84 293.027Z" fill="#FFB8B8"/>
<path d="M837.751 684.845H571.879L515.578 418.694H467.529V406.752H525.258L581.559 672.902H837.751V684.845Z" fill="#3F3D56"/>
<path d="M610.841 733.468C624.975 733.468 636.432 722.01 636.432 707.877C636.432 693.743 624.975 682.285 610.841 682.285C596.707 682.285 585.25 693.743 585.25 707.877C585.25 722.01 596.707 733.468 610.841 733.468Z" fill="#3F3D56"/>
<path d="M801.923 733.468C816.057 733.468 827.515 722.01 827.515 707.877C827.515 693.743 816.057 682.285 801.923 682.285C787.79 682.285 776.332 693.743 776.332 707.877C776.332 722.01 787.79 733.468 801.923 733.468Z" fill="#3F3D56"/>
<path d="M832.904 679.221H574.225L528.584 453.669H875.735C877.507 453.669 879.257 454.053 880.866 454.794C882.475 455.535 883.904 456.616 885.055 457.963C886.207 459.309 887.053 460.888 887.535 462.593C888.018 464.297 888.126 466.086 887.851 467.836L845.018 668.861C844.576 671.753 843.109 674.39 840.886 676.292C838.662 678.194 835.829 679.233 832.904 679.221ZM577.034 675.809H832.904C835.015 675.818 837.06 675.067 838.664 673.695C840.269 672.322 841.327 670.419 841.646 668.331L884.479 467.306C884.677 466.043 884.6 464.752 884.252 463.522C883.904 462.291 883.293 461.151 882.462 460.18C881.631 459.208 880.6 458.428 879.438 457.893C878.277 457.358 877.014 457.081 875.735 457.081H532.726L577.034 675.809Z" fill="#3F3D56"/>
<path d="M624.513 678.499L594.623 455.653L597.989 455.097L627.879 677.943L624.513 678.499Z" fill="#3F3D56"/>
<path d="M790.712 676.788L787.343 676.242L816.36 455.102L819.729 455.648L790.712 676.788Z" fill="#3F3D56"/>
<path d="M711.527 455.375H708.115V678.221H711.527V455.375Z" fill="#3F3D56"/>
<path d="M546.014 515.088L546.005 518.501L876.3 519.3L876.308 515.888L546.014 515.088Z" fill="#3F3D56"/>
<path d="M853 620.494L562.829 622.478L562.853 625.89L853.024 623.906L853 620.494Z" fill="#3F3D56"/>
<path d="M472.648 421.253C483.012 421.253 491.415 416.67 491.415 411.017C491.415 405.363 483.012 400.78 472.648 400.78C462.283 400.78 453.881 405.363 453.881 411.017C453.881 416.67 462.283 421.253 472.648 421.253Z" fill="#3F3D56"/>
<path d="M498.144 361.444H486.048V373H483.06V347.8H486.048V358.78H498.144V347.8H501.132V373H498.144V361.444ZM506.672 356.332C507.584 355.78 508.64 355.372 509.84 355.108C511.064 354.844 512.336 354.712 513.656 354.712C514.904 354.712 515.9 354.88 516.644 355.216C517.412 355.552 517.988 355.996 518.372 356.548C518.78 357.076 519.044 357.664 519.164 358.312C519.308 358.96 519.38 359.608 519.38 360.256C519.38 361.696 519.344 363.1 519.272 364.468C519.2 365.836 519.164 367.132 519.164 368.356C519.164 369.244 519.2 370.084 519.272 370.876C519.344 371.668 519.476 372.4 519.668 373.072H517.544L516.788 370.552H516.608C516.392 370.888 516.116 371.224 515.78 371.56C515.468 371.872 515.084 372.16 514.628 372.424C514.172 372.664 513.644 372.868 513.044 373.036C512.444 373.204 511.76 373.288 510.992 373.288C510.224 373.288 509.504 373.168 508.832 372.928C508.184 372.688 507.62 372.352 507.14 371.92C506.66 371.464 506.276 370.924 505.988 370.3C505.724 369.676 505.592 368.968 505.592 368.176C505.592 367.12 505.808 366.244 506.24 365.548C506.672 364.828 507.272 364.264 508.04 363.856C508.832 363.424 509.768 363.124 510.848 362.956C511.952 362.764 513.164 362.668 514.484 362.668C514.82 362.668 515.144 362.668 515.456 362.668C515.792 362.668 516.128 362.692 516.464 362.74C516.536 362.02 516.572 361.372 516.572 360.796C516.572 359.476 516.308 358.552 515.78 358.024C515.252 357.496 514.292 357.232 512.9 357.232C512.492 357.232 512.048 357.268 511.568 357.34C511.112 357.388 510.632 357.472 510.128 357.592C509.648 357.688 509.18 357.82 508.724 357.988C508.292 358.132 507.908 358.3 507.572 358.492L506.672 356.332ZM511.784 370.768C512.456 370.768 513.056 370.684 513.584 370.516C514.112 370.324 514.568 370.096 514.952 369.832C515.336 369.544 515.648 369.232 515.888 368.896C516.152 368.56 516.344 368.236 516.464 367.924V364.936C516.128 364.912 515.78 364.9 515.42 364.9C515.084 364.876 514.748 364.864 514.412 364.864C513.668 364.864 512.936 364.912 512.216 365.008C511.52 365.08 510.896 365.236 510.344 365.476C509.816 365.692 509.384 366.004 509.048 366.412C508.736 366.796 508.58 367.288 508.58 367.888C508.58 368.728 508.88 369.424 509.479 369.976C510.08 370.504 510.848 370.768 511.784 370.768ZM536.375 373V362.74C536.375 360.868 536.099 359.464 535.547 358.528C535.019 357.568 534.035 357.088 532.595 357.088C531.323 357.088 530.267 357.436 529.427 358.132C528.611 358.804 528.035 359.656 527.699 360.688V373H524.819V355H526.835L527.375 357.196H527.519C528.095 356.428 528.863 355.804 529.823 355.324C530.807 354.82 531.971 354.568 533.315 354.568C534.299 354.568 535.163 354.688 535.907 354.928C536.651 355.144 537.263 355.54 537.743 356.116C538.247 356.692 538.619 357.472 538.859 358.456C539.123 359.416 539.255 360.64 539.255 362.128V373H536.375ZM558.33 366.808C558.33 368.032 558.342 369.148 558.366 370.156C558.39 371.14 558.498 372.112 558.69 373.072H556.746L556.026 370.516H555.882C555.402 371.356 554.706 372.052 553.794 372.604C552.882 373.156 551.814 373.432 550.59 373.432C548.19 373.432 546.402 372.676 545.226 371.164C544.074 369.652 543.498 367.288 543.498 364.072C543.498 361 544.218 358.672 545.658 357.088C547.122 355.48 549.126 354.676 551.67 354.676C552.558 354.676 553.254 354.724 553.758 354.82C554.286 354.916 554.85 355.072 555.45 355.288V347.8H558.33V366.808ZM551.058 370.912C552.282 370.912 553.254 370.6 553.974 369.976C554.694 369.328 555.186 368.356 555.45 367.06V358.132C555.018 357.796 554.526 357.556 553.974 357.412C553.422 357.268 552.69 357.196 551.778 357.196C550.122 357.196 548.826 357.748 547.89 358.852C546.954 359.932 546.486 361.672 546.486 364.072C546.486 365.056 546.558 365.968 546.702 366.808C546.87 367.648 547.134 368.368 547.494 368.968C547.854 369.568 548.322 370.048 548.898 370.408C549.498 370.744 550.218 370.912 551.058 370.912ZM563.877 355H565.857L566.397 357.16H566.541C567.093 356.32 567.801 355.684 568.665 355.252C569.553 354.796 570.561 354.568 571.689 354.568C574.089 354.568 575.877 355.276 577.053 356.692C578.229 358.108 578.817 360.424 578.817 363.64C578.817 365.152 578.613 366.52 578.205 367.744C577.821 368.944 577.269 369.964 576.549 370.804C575.829 371.644 574.953 372.292 573.921 372.748C572.913 373.204 571.785 373.432 570.537 373.432C569.649 373.432 568.941 373.372 568.413 373.252C567.909 373.156 567.357 372.976 566.757 372.712V380.2H563.877V355ZM571.149 357.088C569.925 357.088 568.953 357.412 568.233 358.06C567.537 358.684 567.045 359.644 566.757 360.94V369.868C567.189 370.204 567.681 370.468 568.233 370.66C568.785 370.828 569.517 370.912 570.429 370.912C572.085 370.912 573.393 370.3 574.353 369.076C575.337 367.828 575.829 366.004 575.829 363.604C575.829 362.62 575.745 361.732 575.577 360.94C575.409 360.124 575.133 359.44 574.749 358.888C574.389 358.312 573.909 357.868 573.309 357.556C572.733 357.244 572.013 357.088 571.149 357.088ZM583.966 355H586.846V373H583.966V355ZM583.354 349.528C583.354 348.976 583.534 348.508 583.894 348.124C584.278 347.716 584.758 347.512 585.334 347.512C585.91 347.512 586.402 347.716 586.81 348.124C587.218 348.508 587.422 348.976 587.422 349.528C587.422 350.08 587.218 350.536 586.81 350.896C586.402 351.256 585.91 351.436 585.334 351.436C584.758 351.436 584.278 351.256 583.894 350.896C583.534 350.536 583.354 350.08 583.354 349.528ZM605.263 371.812C604.543 372.34 603.691 372.736 602.707 373C601.723 373.288 600.691 373.432 599.611 373.432C598.219 373.432 597.043 373.216 596.083 372.784C595.123 372.328 594.331 371.692 593.707 370.876C593.107 370.036 592.663 369.04 592.375 367.888C592.111 366.712 591.979 365.416 591.979 364C591.979 360.952 592.651 358.624 593.995 357.016C595.339 355.384 597.271 354.568 599.791 354.568C600.943 354.568 601.915 354.664 602.707 354.856C603.523 355.024 604.255 355.276 604.903 355.612L604.075 358.096C603.523 357.784 602.911 357.544 602.239 357.376C601.567 357.184 600.847 357.088 600.079 357.088C596.671 357.088 594.967 359.392 594.967 364C594.967 364.912 595.051 365.788 595.219 366.628C595.411 367.444 595.711 368.176 596.119 368.824C596.551 369.448 597.103 369.952 597.775 370.336C598.471 370.72 599.323 370.912 600.331 370.912C601.195 370.912 601.963 370.78 602.635 370.516C603.331 370.252 603.895 369.952 604.327 369.616L605.263 371.812ZM613.765 364.9H612.109V373H609.229V347.8H612.109V363.136L613.585 362.632L619.165 355H622.513L617.005 362.236L615.529 363.424L617.329 364.864L623.341 373H619.777L613.765 364.9ZM639.174 371.56C638.454 372.136 637.542 372.592 636.438 372.928C635.358 373.264 634.206 373.432 632.982 373.432C631.614 373.432 630.426 373.216 629.418 372.784C628.41 372.328 627.582 371.692 626.934 370.876C626.286 370.036 625.806 369.04 625.494 367.888C625.182 366.736 625.026 365.44 625.026 364C625.026 360.928 625.71 358.588 627.078 356.98C628.446 355.372 630.402 354.568 632.946 354.568C633.762 354.568 634.578 354.664 635.394 354.856C636.21 355.024 636.942 355.36 637.59 355.864C638.238 356.368 638.766 357.088 639.174 358.024C639.582 358.936 639.786 360.148 639.786 361.66C639.786 362.452 639.714 363.328 639.57 364.288H628.014C628.014 365.344 628.122 366.28 628.338 367.096C628.554 367.912 628.89 368.608 629.346 369.184C629.802 369.736 630.39 370.168 631.11 370.48C631.854 370.768 632.754 370.912 633.81 370.912C634.626 370.912 635.442 370.768 636.258 370.48C637.074 370.192 637.686 369.856 638.094 369.472L639.174 371.56ZM632.982 357.088C631.566 357.088 630.426 357.46 629.562 358.204C628.722 358.948 628.218 360.22 628.05 362.02H636.978C636.978 360.196 636.63 358.924 635.934 358.204C635.238 357.46 634.254 357.088 632.982 357.088ZM658.139 366.808C658.139 368.032 658.151 369.148 658.175 370.156C658.199 371.14 658.307 372.112 658.499 373.072H656.555L655.835 370.516H655.691C655.211 371.356 654.515 372.052 653.603 372.604C652.691 373.156 651.623 373.432 650.399 373.432C647.999 373.432 646.211 372.676 645.035 371.164C643.883 369.652 643.307 367.288 643.307 364.072C643.307 361 644.027 358.672 645.467 357.088C646.931 355.48 648.935 354.676 651.479 354.676C652.367 354.676 653.063 354.724 653.567 354.82C654.095 354.916 654.659 355.072 655.259 355.288V347.8H658.139V366.808ZM650.867 370.912C652.091 370.912 653.063 370.6 653.783 369.976C654.503 369.328 654.995 368.356 655.259 367.06V358.132C654.827 357.796 654.335 357.556 653.783 357.412C653.231 357.268 652.499 357.196 651.587 357.196C649.931 357.196 648.635 357.748 647.699 358.852C646.763 359.932 646.295 361.672 646.295 364.072C646.295 365.056 646.367 365.968 646.511 366.808C646.679 367.648 646.943 368.368 647.303 368.968C647.663 369.568 648.131 370.048 648.707 370.408C649.307 370.744 650.027 370.912 650.867 370.912ZM674.256 347.8H677.244V373H674.256V347.8ZM681.384 355H684.192V351.436L687.072 350.608V355H691.968V357.52H687.072V367.492C687.072 368.74 687.228 369.628 687.54 370.156C687.852 370.66 688.38 370.912 689.124 370.912C689.748 370.912 690.276 370.852 690.708 370.732C691.14 370.588 691.62 370.408 692.148 370.192L692.796 372.388C692.148 372.7 691.44 372.952 690.672 373.144C689.904 373.336 689.076 373.432 688.188 373.432C686.724 373.432 685.692 373.024 685.092 372.208C684.492 371.368 684.192 369.976 684.192 368.032V357.52H681.384V355ZM708.713 371.56C707.993 372.136 707.081 372.592 705.977 372.928C704.897 373.264 703.745 373.432 702.521 373.432C701.153 373.432 699.965 373.216 698.957 372.784C697.949 372.328 697.121 371.692 696.473 370.876C695.825 370.036 695.345 369.04 695.033 367.888C694.721 366.736 694.565 365.44 694.565 364C694.565 360.928 695.249 358.588 696.617 356.98C697.985 355.372 699.941 354.568 702.485 354.568C703.301 354.568 704.117 354.664 704.933 354.856C705.749 355.024 706.481 355.36 707.129 355.864C707.777 356.368 708.305 357.088 708.713 358.024C709.121 358.936 709.325 360.148 709.325 361.66C709.325 362.452 709.253 363.328 709.109 364.288H697.553C697.553 365.344 697.661 366.28 697.877 367.096C698.093 367.912 698.429 368.608 698.885 369.184C699.341 369.736 699.929 370.168 700.649 370.48C701.393 370.768 702.293 370.912 703.349 370.912C704.165 370.912 704.981 370.768 705.797 370.48C706.613 370.192 707.225 369.856 707.633 369.472L708.713 371.56ZM702.521 357.088C701.105 357.088 699.965 357.46 699.101 358.204C698.261 358.948 697.757 360.22 697.589 362.02H706.517C706.517 360.196 706.169 358.924 705.473 358.204C704.777 357.46 703.793 357.088 702.521 357.088ZM724.402 373V362.812C724.402 361.852 724.354 361.024 724.258 360.328C724.186 359.608 724.03 359.008 723.79 358.528C723.55 358.048 723.202 357.688 722.746 357.448C722.314 357.208 721.738 357.088 721.018 357.088C719.914 357.088 718.99 357.424 718.246 358.096C717.526 358.768 717.022 359.608 716.734 360.616V373H713.854V355H715.87L716.41 357.196H716.554C717.202 356.428 717.946 355.804 718.786 355.324C719.65 354.82 720.766 354.568 722.134 354.568C723.286 354.568 724.222 354.796 724.942 355.252C725.686 355.684 726.262 356.452 726.67 357.556C727.222 356.62 727.978 355.888 728.938 355.36C729.922 354.832 731.026 354.568 732.25 354.568C733.258 354.568 734.11 354.688 734.806 354.928C735.502 355.144 736.078 355.54 736.534 356.116C736.99 356.692 737.314 357.472 737.506 358.456C737.722 359.44 737.83 360.688 737.83 362.2V373H734.95V362.164C734.95 361.3 734.902 360.556 734.806 359.932C734.734 359.284 734.566 358.756 734.302 358.348C734.062 357.916 733.714 357.604 733.258 357.412C732.826 357.196 732.25 357.088 731.53 357.088C730.33 357.088 729.394 357.424 728.722 358.096C728.05 358.768 727.57 359.728 727.282 360.976V373H724.402ZM750.989 368.104C750.989 367.384 750.773 366.82 750.341 366.412C749.909 366.004 749.369 365.668 748.721 365.404C748.097 365.116 747.401 364.852 746.633 364.612C745.889 364.348 745.193 364.024 744.545 363.64C743.921 363.232 743.393 362.716 742.961 362.092C742.529 361.468 742.313 360.628 742.313 359.572C742.313 357.844 742.805 356.584 743.789 355.792C744.773 354.976 746.141 354.568 747.893 354.568C749.189 354.568 750.269 354.688 751.133 354.928C752.021 355.144 752.789 355.408 753.437 355.72L752.753 358.096C752.201 357.832 751.529 357.604 750.737 357.412C749.969 357.196 749.141 357.088 748.253 357.088C747.197 357.088 746.417 357.268 745.913 357.628C745.433 357.988 745.193 358.612 745.193 359.5C745.193 360.124 745.409 360.616 745.841 360.976C746.273 361.312 746.801 361.624 747.425 361.912C748.073 362.176 748.769 362.44 749.513 362.704C750.281 362.968 750.977 363.316 751.601 363.748C752.249 364.18 752.789 364.732 753.221 365.404C753.653 366.052 753.869 366.916 753.869 367.996C753.869 368.764 753.737 369.484 753.473 370.156C753.233 370.828 752.849 371.404 752.321 371.884C751.793 372.364 751.133 372.736 750.341 373C749.573 373.288 748.661 373.432 747.605 373.432C746.237 373.432 745.073 373.3 744.113 373.036C743.153 372.772 742.349 372.46 741.701 372.1L742.565 369.652C743.117 369.964 743.837 370.252 744.725 370.516C745.613 370.78 746.513 370.912 747.425 370.912C748.457 370.912 749.309 370.708 749.981 370.3C750.653 369.892 750.989 369.16 750.989 368.104ZM765.839 355H768.647V353.992C768.647 352.888 768.731 351.928 768.899 351.112C769.091 350.296 769.391 349.636 769.799 349.132C770.207 348.604 770.735 348.22 771.383 347.98C772.031 347.716 772.835 347.584 773.795 347.584C774.563 347.584 775.235 347.632 775.811 347.728C776.411 347.824 777.035 348.004 777.683 348.268L777.035 350.68C776.483 350.44 775.955 350.284 775.451 350.212C774.971 350.14 774.515 350.104 774.083 350.104C773.459 350.104 772.967 350.2 772.607 350.392C772.271 350.584 772.019 350.872 771.851 351.256C771.707 351.616 771.611 352.072 771.563 352.624C771.539 353.152 771.527 353.776 771.527 354.496V355H776.315V357.52H771.527V373H768.647V357.52H765.839V355ZM777.92 364C777.92 360.952 778.592 358.624 779.936 357.016C781.304 355.384 783.26 354.568 785.804 354.568C787.148 354.568 788.312 354.796 789.296 355.252C790.304 355.684 791.132 356.32 791.78 357.16C792.428 357.976 792.908 358.972 793.22 360.148C793.532 361.3 793.688 362.584 793.688 364C793.688 367.048 793.004 369.388 791.636 371.02C790.292 372.628 788.348 373.432 785.804 373.432C784.46 373.432 783.284 373.216 782.276 372.784C781.292 372.328 780.476 371.692 779.828 370.876C779.18 370.036 778.7 369.04 778.388 367.888C778.076 366.712 777.92 365.416 777.92 364ZM780.908 364C780.908 364.912 780.992 365.788 781.16 366.628C781.352 367.468 781.64 368.2 782.024 368.824C782.408 369.448 782.912 369.952 783.536 370.336C784.16 370.72 784.916 370.912 785.804 370.912C789.068 370.936 790.7 368.632 790.7 364C790.7 363.064 790.604 362.176 790.412 361.336C790.244 360.496 789.968 359.764 789.584 359.14C789.2 358.516 788.696 358.024 788.072 357.664C787.448 357.28 786.692 357.088 785.804 357.088C782.54 357.064 780.908 359.368 780.908 364ZM806.725 357.772C806.005 357.532 805.321 357.412 804.673 357.412C803.641 357.412 802.825 357.7 802.225 358.276C801.625 358.828 801.253 359.536 801.109 360.4V373H798.229V355H800.245L800.785 357.196H800.929C801.385 356.38 801.925 355.756 802.549 355.324C803.197 354.868 804.013 354.64 804.997 354.64C805.693 354.64 806.473 354.76 807.337 355L806.725 357.772ZM824.861 366.664L825.869 370.12H826.049L826.841 366.628L830.333 355H833.249L827.921 371.164C827.513 372.34 827.105 373.48 826.697 374.584C826.313 375.688 825.881 376.672 825.401 377.536C824.921 378.4 824.381 379.084 823.781 379.588C823.181 380.116 822.485 380.38 821.693 380.38C820.829 380.38 820.121 380.26 819.569 380.02L820.073 377.536C820.385 377.656 820.685 377.716 820.973 377.716C821.645 377.716 822.293 377.356 822.917 376.636C823.541 375.94 824.057 374.728 824.465 373L817.229 355H820.541L824.861 366.664ZM834.944 364C834.944 360.952 835.616 358.624 836.96 357.016C838.328 355.384 840.284 354.568 842.828 354.568C844.172 354.568 845.336 354.796 846.32 355.252C847.328 355.684 848.156 356.32 848.804 357.16C849.452 357.976 849.932 358.972 850.244 360.148C850.556 361.3 850.712 362.584 850.712 364C850.712 367.048 850.028 369.388 848.66 371.02C847.316 372.628 845.372 373.432 842.828 373.432C841.484 373.432 840.308 373.216 839.3 372.784C838.316 372.328 837.5 371.692 836.852 370.876C836.204 370.036 835.724 369.04 835.412 367.888C835.1 366.712 834.944 365.416 834.944 364ZM837.932 364C837.932 364.912 838.016 365.788 838.184 366.628C838.376 367.468 838.664 368.2 839.048 368.824C839.432 369.448 839.936 369.952 840.56 370.336C841.184 370.72 841.94 370.912 842.828 370.912C846.092 370.936 847.724 368.632 847.724 364C847.724 363.064 847.628 362.176 847.436 361.336C847.268 360.496 846.992 359.764 846.608 359.14C846.224 358.516 845.72 358.024 845.096 357.664C844.472 357.28 843.716 357.088 842.828 357.088C839.564 357.064 837.932 359.368 837.932 364ZM857.844 355V365.26C857.844 366.196 857.892 367.024 857.988 367.744C858.108 368.44 858.3 369.028 858.564 369.508C858.828 369.964 859.188 370.312 859.644 370.552C860.1 370.792 860.676 370.912 861.372 370.912C862.02 370.912 862.596 370.816 863.1 370.624C863.604 370.408 864.048 370.12 864.432 369.76C864.84 369.4 865.188 368.992 865.476 368.536C865.788 368.056 866.04 367.552 866.232 367.024V355H869.112V367.888C869.112 368.752 869.136 369.652 869.184 370.588C869.256 371.5 869.364 372.304 869.508 373H867.528L866.808 370.156H866.628C866.076 371.092 865.332 371.872 864.396 372.496C863.46 373.12 862.272 373.432 860.832 373.432C859.872 373.432 859.02 373.312 858.276 373.072C857.556 372.856 856.944 372.46 856.44 371.884C855.96 371.308 855.588 370.54 855.324 369.58C855.084 368.596 854.964 367.36 854.964 365.872V355H857.844Z" fill="#757474"/>
<rect x="689" y="247" width="161" height="88" rx="10" fill="#1A6ECE"/>
<path d="M581.432 295.6C581.432 288.133 583.075 282.395 586.36 278.384C589.645 274.331 594.339 272.304 600.44 272.304C603.64 272.304 606.435 272.859 608.824 273.968C611.213 275.077 613.197 276.656 614.776 278.704C616.355 280.752 617.528 283.205 618.296 286.064C619.064 288.923 619.448 292.101 619.448 295.6C619.448 303.067 617.784 308.827 614.456 312.88C611.171 316.891 606.499 318.896 600.44 318.896C597.197 318.896 594.381 318.341 591.992 317.232C589.603 316.123 587.619 314.544 586.04 312.496C584.504 310.448 583.352 307.995 582.584 305.136C581.816 302.277 581.432 299.099 581.432 295.6ZM590.648 295.6C590.648 297.861 590.84 299.952 591.224 301.872C591.608 303.749 592.184 305.371 592.952 306.736C593.763 308.101 594.787 309.168 596.024 309.936C597.261 310.704 598.733 311.088 600.44 311.088C603.555 311.088 605.965 309.872 607.672 307.44C609.379 305.008 610.232 301.061 610.232 295.6C610.232 293.424 610.04 291.397 609.656 289.52C609.315 287.643 608.76 286 607.992 284.592C607.224 283.184 606.221 282.096 604.984 281.328C603.747 280.517 602.232 280.112 600.44 280.112C597.325 280.112 594.915 281.371 593.208 283.888C591.501 286.363 590.648 290.267 590.648 295.6ZM633.523 286V304.176C633.523 306.779 633.822 308.656 634.419 309.808C635.059 310.96 636.275 311.536 638.067 311.536C639.646 311.536 640.947 311.067 641.971 310.128C643.038 309.189 643.827 308.037 644.339 306.672V286H652.659V308.272C652.659 310.021 652.744 311.749 652.915 313.456C653.086 315.12 653.342 316.635 653.683 318H647.411L645.939 313.264H645.683C644.702 314.885 643.336 316.229 641.587 317.296C639.838 318.363 637.768 318.896 635.379 318.896C633.758 318.896 632.307 318.683 631.027 318.256C629.747 317.829 628.68 317.125 627.827 316.144C626.974 315.163 626.312 313.84 625.843 312.176C625.416 310.512 625.203 308.421 625.203 305.904V286H633.523ZM677.625 293.808C676.302 293.339 675.107 293.104 674.041 293.104C672.547 293.104 671.289 293.509 670.265 294.32C669.283 295.088 668.622 296.091 668.281 297.328V318H659.961V286H666.425L667.385 290.224H667.641C668.366 288.645 669.347 287.429 670.585 286.576C671.822 285.723 673.273 285.296 674.937 285.296C676.046 285.296 677.305 285.531 678.713 286L677.625 293.808Z" fill="#807F7F"/>
<path d="M718.106 305.968C718.106 304.603 717.594 303.493 716.57 302.64C715.588 301.787 714.33 301.019 712.794 300.336C711.3 299.611 709.658 298.885 707.866 298.16C706.116 297.392 704.474 296.475 702.938 295.408C701.444 294.299 700.186 292.933 699.161 291.312C698.18 289.691 697.69 287.621 697.69 285.104C697.69 282.928 698.052 281.051 698.778 279.472C699.503 277.851 700.527 276.507 701.85 275.44C703.215 274.373 704.815 273.584 706.65 273.072C708.484 272.56 710.532 272.304 712.794 272.304C715.396 272.304 717.85 272.539 720.154 273.008C722.458 273.435 724.356 274.075 725.85 274.928L723.098 282.288C722.159 281.691 720.751 281.157 718.874 280.688C716.996 280.176 714.97 279.92 712.794 279.92C710.746 279.92 709.167 280.325 708.058 281.136C706.991 281.947 706.458 283.035 706.458 284.4C706.458 285.68 706.948 286.747 707.93 287.6C708.954 288.453 710.212 289.243 711.706 289.968C713.242 290.693 714.884 291.44 716.634 292.208C718.426 292.976 720.068 293.915 721.562 295.024C723.098 296.091 724.356 297.435 725.338 299.056C726.362 300.635 726.874 302.619 726.874 305.008C726.874 307.397 726.468 309.467 725.658 311.216C724.89 312.923 723.78 314.352 722.33 315.504C720.922 316.656 719.194 317.509 717.146 318.064C715.14 318.619 712.922 318.896 710.49 318.896C707.29 318.896 704.474 318.597 702.042 318C699.61 317.403 697.818 316.805 696.666 316.208L699.482 308.72C699.951 308.976 700.548 309.253 701.274 309.552C702.042 309.851 702.895 310.128 703.834 310.384C704.772 310.64 705.754 310.853 706.778 311.024C707.844 311.195 708.932 311.28 710.042 311.28C712.644 311.28 714.628 310.853 715.994 310C717.402 309.104 718.106 307.76 718.106 305.968ZM729.195 286H733.611V279.984L741.931 277.616V286H749.739V293.04H741.931V305.328C741.931 307.547 742.144 309.147 742.571 310.128C743.04 311.067 743.894 311.536 745.131 311.536C745.984 311.536 746.71 311.451 747.307 311.28C747.947 311.109 748.651 310.853 749.419 310.512L750.891 316.912C749.739 317.467 748.395 317.936 746.859 318.32C745.323 318.704 743.766 318.896 742.187 318.896C739.243 318.896 737.067 318.149 735.659 316.656C734.294 315.12 733.611 312.624 733.611 309.168V293.04H729.195V286ZM752.987 302C752.987 296.581 754.31 292.421 756.955 289.52C759.6 286.576 763.312 285.104 768.091 285.104C770.651 285.104 772.87 285.509 774.747 286.32C776.624 287.131 778.182 288.283 779.419 289.776C780.656 291.227 781.574 292.997 782.171 295.088C782.811 297.179 783.131 299.483 783.131 302C783.131 307.419 781.808 311.6 779.163 314.544C776.56 317.445 772.87 318.896 768.091 318.896C765.531 318.896 763.312 318.491 761.435 317.68C759.558 316.869 757.979 315.739 756.699 314.288C755.462 312.795 754.523 311.003 753.883 308.912C753.286 306.821 752.987 304.517 752.987 302ZM761.563 302C761.563 303.408 761.691 304.709 761.947 305.904C762.203 307.099 762.587 308.144 763.099 309.04C763.611 309.936 764.272 310.64 765.083 311.152C765.936 311.621 766.939 311.856 768.091 311.856C770.267 311.856 771.888 311.067 772.955 309.488C774.022 307.909 774.555 305.413 774.555 302C774.555 299.056 774.064 296.688 773.083 294.896C772.102 293.061 770.438 292.144 768.091 292.144C766.043 292.144 764.443 292.912 763.291 294.448C762.139 295.984 761.563 298.501 761.563 302ZM806.562 293.808C805.239 293.339 804.045 293.104 802.978 293.104C801.485 293.104 800.226 293.509 799.202 294.32C798.221 295.088 797.559 296.091 797.218 297.328V318H788.898V286H795.362L796.322 290.224H796.578C797.303 288.645 798.285 287.429 799.522 286.576C800.759 285.723 802.21 285.296 803.874 285.296C804.983 285.296 806.242 285.531 807.65 286L806.562 293.808ZM836.936 315.248C835.656 316.272 833.906 317.147 831.688 317.872C829.512 318.555 827.186 318.896 824.712 318.896C819.549 318.896 815.773 317.403 813.384 314.416C810.994 311.387 809.799 307.248 809.799 302C809.799 296.368 811.144 292.144 813.832 289.328C816.52 286.512 820.296 285.104 825.16 285.104C826.781 285.104 828.36 285.317 829.896 285.744C831.432 286.171 832.797 286.875 833.992 287.856C835.186 288.837 836.146 290.16 836.872 291.824C837.597 293.488 837.96 295.557 837.96 298.032C837.96 298.928 837.896 299.888 837.768 300.912C837.682 301.936 837.533 303.003 837.32 304.112H818.12C818.248 306.8 818.93 308.827 820.168 310.192C821.448 311.557 823.496 312.24 826.312 312.24C828.061 312.24 829.618 311.984 830.984 311.472C832.392 310.917 833.458 310.363 834.184 309.808L836.936 315.248ZM825.032 291.76C822.856 291.76 821.234 292.421 820.168 293.744C819.144 295.024 818.525 296.752 818.312 298.928H830.216C830.386 296.624 830.024 294.853 829.128 293.616C828.274 292.379 826.909 291.76 825.032 291.76Z" fill="white"/>
</g>
<defs>
<clipPath id="clip0">
<rect width="888" height="741.048" fill="white"/>
</clipPath>
</defs>
</svg>
