<svg width="1083" height="450" viewBox="0 0 1083 450" fill="none" xmlns="http://www.w3.org/2000/svg">
<g clip-path="url(#clip0)">
<path d="M1004.85 390.495L1029.67 388.84L1021.39 426.069L993.266 414.487L1004.85 390.495Z" fill="#FFB9B9"/>
<path d="M777.339 321.001L835.25 264.744L868.343 290.391L933.7 368.985L926.254 380.567L846.833 326.792L793.058 397.113L741.765 371.467L777.339 321.001Z" fill="#2F2E41"/>
<path opacity="0.1" d="M777.339 321.001L835.25 264.744L868.343 290.391L933.7 368.985L926.254 380.567L846.833 326.792L793.058 397.113L741.765 371.467L777.339 321.001Z" fill="black"/>
<path d="M772.375 358.23L779.821 364.021L840.214 343.338L854.278 337.547L882.407 343.338C882.407 343.338 882.407 320.174 855.933 321.001L828.632 327.62L796.367 330.101L772.375 358.23Z" fill="#FFB9B9"/>
<path d="M718.6 419.451L736.801 431.033H758.311L858.415 393.804L1004.85 420.278L1008.98 388.84L874.961 330.102L757.483 368.985L718.6 419.451Z" fill="#2F2E41"/>
<path d="M836.078 272.19L848.487 274.672L851.191 271.517C853.332 269.019 854.689 265.946 855.091 262.681C855.493 259.415 854.922 256.104 853.451 253.162L818.704 207.66C818.704 207.66 808.776 185.323 793.058 194.423C777.339 203.524 806.295 218.415 806.295 218.415L823.668 245.716L822.013 259.781L836.078 272.19Z" fill="#FFB9B9"/>
<path d="M757.483 218.415C739.664 218.415 725.218 203.97 725.218 186.15C725.218 168.331 739.664 153.885 757.483 153.885C775.303 153.885 789.748 168.331 789.748 186.15C789.748 203.97 775.303 218.415 757.483 218.415Z" fill="#FFB9B9"/>
<path d="M771.961 209.728L757.07 245.303L721.496 230.411C721.496 230.411 733.078 202.283 733.078 201.455C733.078 200.628 771.961 209.728 771.961 209.728Z" fill="#FFB9B9"/>
<path d="M674 314.97C674 334.442 677.069 353.793 683.092 372.311L685.508 379.74L697.09 432.688L709.5 435.997L718.6 424.414L736.801 411.178L750.038 389.668L761.388 370.755L764.929 364.848L777.339 302.8L824.495 276.327L840.214 273.845L836.905 264.744L822.841 245.716L808.776 244.062L804.64 240.752L801.331 242.407L788.094 234.961L783.957 236.616L759.767 238.866L745.074 235.789L723.944 224.446L715.291 225.861L685.508 250.68C677.894 271.259 673.997 293.028 674 314.97Z" fill="#575A89"/>
<path d="M1022.05 403.305C1022.05 403.305 1014.64 390.747 1017.77 389.28C1020.9 387.814 1034.19 381.969 1034.19 381.969L1053.68 375.509C1053.68 375.509 1081.81 333.708 1082.43 370.059C1083.04 406.41 1061.95 415.148 1061.95 415.148C1061.95 415.148 1043.13 455.641 1032.47 449.184C1021.81 442.727 1011.15 420.808 1011.15 420.808C1011.15 420.808 1030.37 410.476 1022.05 403.305Z" fill="#2F2E41"/>
<path opacity="0.1" d="M683.026 307.764L714.464 328.447L761.388 370.755L764.929 364.848L774.857 315.21H772.375L746.728 268.054L683.026 307.764Z" fill="black"/>
<path d="M746.728 263.09L772.375 310.246H781.475L787.266 326.792L800.503 330.102L764.929 368.985L714.464 323.483L683.026 302.8L746.728 263.09Z" fill="#575A89"/>
<path d="M782.579 162.16L786.075 163.505C786.613 163.141 787.072 162.673 787.427 162.129C787.781 161.585 788.024 160.976 788.14 160.337C788.256 159.698 788.244 159.042 788.103 158.408C787.963 157.774 787.697 157.175 787.322 156.645L793.783 156.342C789.636 150.819 784.363 146.24 778.314 142.907C772.264 139.574 765.576 137.563 758.692 137.008C751.807 136.453 744.884 137.367 738.379 139.688C731.873 142.009 725.935 145.685 720.957 150.473C720.663 149.46 717.457 151.43 716.148 153.429C715.708 151.78 712.702 159.749 711.639 165.381C711.146 163.506 709.254 166.533 710.912 169.439C709.861 169.285 709.387 171.973 710.2 173.471C709.051 172.931 709.244 176.14 710.49 178.284C708.85 178.138 723.426 200.76 729.327 213.98C731.041 206.107 732.968 197.816 738.493 191.951C739.432 190.954 740.461 190.046 741.488 189.14L747.041 184.237C753.499 178.537 759.374 171.501 767.977 169.371C773.889 167.907 777.627 167.576 774.405 160.914C777.316 162.129 780.035 163.935 782.972 165.064C782.932 164.133 782.522 163.091 782.579 162.16Z" fill="#2F2E41"/>
<path d="M741.351 195.664C738.153 195.664 735.56 193.071 735.56 189.873C735.56 186.675 738.153 184.082 741.351 184.082C744.549 184.082 747.142 186.675 747.142 189.873C747.142 193.071 744.549 195.664 741.351 195.664Z" fill="#FFB9B9"/>
<path d="M56.2071 5.36232H316.377V0H434.348V5.36232H695.59C697.901 5.36232 700.189 5.81751 702.324 6.70192C704.46 7.58633 706.4 8.88263 708.034 10.5168C709.668 12.151 710.964 14.091 711.849 16.2262C712.733 18.3613 713.188 20.6497 713.188 22.9608V379.213C713.188 381.524 712.733 383.813 711.849 385.948C710.964 388.083 709.668 390.023 708.034 391.657C706.4 393.291 704.46 394.588 702.325 395.472C700.189 396.356 697.901 396.812 695.59 396.812H56.2071C51.5397 396.812 47.0635 394.957 43.7631 391.657C40.4628 388.357 38.6086 383.88 38.6086 379.213V22.9608C38.6086 20.6497 39.0638 18.3613 39.9482 16.2262C40.8326 14.091 42.129 12.151 43.7631 10.5168C45.3973 8.88263 47.3373 7.58633 49.4725 6.70192C51.6076 5.81751 53.896 5.36232 56.2071 5.36232Z" fill="#3F3D56"/>
<path d="M62.2029 36.4637H689.594V390.377H62.2029V36.4637Z" fill="#6C63FF"/>
<path d="M376.435 26.8116C372.881 26.8116 370 23.9306 370 20.3768C370 16.823 372.881 13.942 376.435 13.942C379.989 13.942 382.87 16.823 382.87 20.3768C382.87 23.9306 379.989 26.8116 376.435 26.8116Z" fill="#6C63FF"/>
<path opacity="0.1" d="M241.626 390.377H689.594V36.464L241.626 390.377Z" fill="black"/>
<path d="M591.426 363.893C558.12 363.893 531.119 336.893 531.119 303.587C531.119 270.28 558.12 243.28 591.426 243.28C624.733 243.28 651.733 270.28 651.733 303.587C651.733 336.893 624.733 363.893 591.426 363.893Z" fill="#F2F2F2"/>
<path d="M578.001 348.913C592.838 348.913 607.341 344.513 619.678 336.271C632.014 328.028 641.629 316.312 647.307 302.604C652.985 288.897 654.47 273.814 651.576 259.262C648.681 244.711 641.537 231.344 631.045 220.853C620.554 210.362 607.188 203.217 592.636 200.323C578.084 197.428 563.001 198.914 549.294 204.592C535.587 210.269 523.871 219.884 515.628 232.221C507.385 244.557 502.985 259.06 502.985 273.897C503.008 293.786 510.919 312.853 524.982 326.916C539.045 340.98 558.113 348.89 578.001 348.913ZM578.001 199.862C592.644 199.862 606.958 204.204 619.133 212.339C631.308 220.474 640.797 232.037 646.401 245.565C652.004 259.093 653.471 273.979 650.614 288.341C647.757 302.702 640.706 315.894 630.352 326.248C619.998 336.602 606.806 343.653 592.445 346.51C578.083 349.366 563.197 347.9 549.669 342.297C536.141 336.693 524.578 327.204 516.443 315.029C508.308 302.854 503.966 288.54 503.966 273.897C503.988 254.269 511.795 235.45 525.675 221.571C539.554 207.691 558.373 199.884 578.001 199.862Z" fill="#3F3D56"/>
<path d="M171.442 227.332H230.047V239.578H171.442V227.332Z" fill="#3F3D56"/>
<path d="M100.591 131.989H300.898V137.237H100.591V131.989Z" fill="#3F3D56"/>
<path d="M100.591 148.609H300.898V153.857H100.591V148.609Z" fill="#3F3D56"/>
<path d="M100.591 165.228H300.898V170.476H100.591V165.228Z" fill="#3F3D56"/>
<path d="M100.591 181.847H300.898V187.096H100.591V181.847Z" fill="#3F3D56"/>
<path d="M100.591 198.467H300.898V203.715H100.591V198.467Z" fill="#3F3D56"/>
<path d="M100.591 43.6439H125.083V68.1357H100.591V43.6439Z" fill="#F2F2F2"/>
<path d="M89.2198 79.5069H118.96V49.7668H89.2198V79.5069ZM117.667 78.2139H90.5128V51.0599H117.667V78.2139Z" fill="#3F3D56"/>
<path d="M20.9929 383.942H82.2221V379.53C82.2221 379.416 82.2448 379.302 82.2888 379.196C82.3327 379.09 82.3971 378.993 82.4783 378.912C82.5596 378.831 82.656 378.766 82.7621 378.722C82.8683 378.678 82.982 378.656 83.0969 378.656H104.09C104.205 378.656 104.318 378.678 104.424 378.722C104.531 378.766 104.627 378.831 104.708 378.912C104.79 378.993 104.854 379.09 104.898 379.196C104.942 379.302 104.964 379.416 104.964 379.53V383.942H118.085V379.53C118.085 379.416 118.108 379.302 118.152 379.196C118.196 379.09 118.26 378.993 118.341 378.912C118.422 378.831 118.519 378.766 118.625 378.722C118.731 378.678 118.845 378.656 118.96 378.656H139.953C140.068 378.656 140.181 378.678 140.287 378.722C140.394 378.766 140.49 378.831 140.571 378.912C140.652 378.993 140.717 379.09 140.761 379.196C140.805 379.302 140.827 379.416 140.827 379.53V383.942H153.948V379.53C153.948 379.416 153.971 379.302 154.014 379.196C154.058 379.09 154.123 378.993 154.204 378.912C154.285 378.831 154.382 378.766 154.488 378.722C154.594 378.678 154.708 378.656 154.823 378.656H175.816C175.93 378.656 176.044 378.678 176.15 378.722C176.256 378.766 176.353 378.831 176.434 378.912C176.515 378.993 176.58 379.09 176.624 379.196C176.668 379.302 176.69 379.416 176.69 379.53V383.942H189.811V379.53C189.811 379.416 189.833 379.302 189.877 379.196C189.921 379.09 189.986 378.993 190.067 378.912C190.148 378.831 190.245 378.766 190.351 378.722C190.457 378.678 190.571 378.656 190.685 378.656H211.678C211.793 378.656 211.907 378.678 212.013 378.722C212.119 378.766 212.216 378.831 212.297 378.912C212.378 378.993 212.443 379.09 212.487 379.196C212.531 379.302 212.553 379.416 212.553 379.53V383.942H225.674V379.53C225.674 379.416 225.696 379.302 225.74 379.196C225.784 379.09 225.849 378.993 225.93 378.912C226.011 378.831 226.108 378.766 226.214 378.722C226.32 378.678 226.434 378.656 226.548 378.656H247.541C247.656 378.656 247.77 378.678 247.876 378.722C247.982 378.766 248.079 378.831 248.16 378.912C248.241 378.993 248.306 379.09 248.349 379.196C248.393 379.302 248.416 379.416 248.416 379.53V383.942H261.537V379.53C261.537 379.416 261.559 379.302 261.603 379.196C261.647 379.09 261.712 378.993 261.793 378.912C261.874 378.831 261.97 378.766 262.077 378.722C262.183 378.678 262.296 378.656 262.411 378.656H283.404C283.519 378.656 283.633 378.678 283.739 378.722C283.845 378.766 283.941 378.831 284.023 378.912C284.104 378.993 284.168 379.09 284.212 379.196C284.256 379.302 284.279 379.416 284.279 379.53V383.942H297.399V379.53C297.399 379.416 297.422 379.302 297.466 379.196C297.51 379.09 297.574 378.993 297.656 378.912C297.737 378.831 297.833 378.766 297.939 378.722C298.046 378.678 298.159 378.656 298.274 378.656H462.719C462.833 378.656 462.947 378.678 463.053 378.722C463.16 378.766 463.256 378.831 463.337 378.912C463.418 378.993 463.483 379.09 463.527 379.196C463.571 379.302 463.593 379.416 463.593 379.53V383.942H476.714V379.53C476.714 379.416 476.737 379.302 476.78 379.196C476.824 379.09 476.889 378.993 476.97 378.912C477.051 378.831 477.148 378.766 477.254 378.722C477.36 378.678 477.474 378.656 477.589 378.656H498.581C498.696 378.656 498.81 378.678 498.916 378.722C499.022 378.766 499.119 378.831 499.2 378.912C499.281 378.993 499.346 379.09 499.39 379.196C499.434 379.302 499.456 379.416 499.456 379.53V383.942H512.577V379.53C512.577 379.416 512.599 379.302 512.643 379.196C512.687 379.09 512.752 378.993 512.833 378.912C512.914 378.831 513.011 378.766 513.117 378.722C513.223 378.678 513.337 378.656 513.452 378.656H534.444C534.559 378.656 534.673 378.678 534.779 378.722C534.885 378.766 534.982 378.831 535.063 378.912C535.144 378.993 535.209 379.09 535.253 379.196C535.296 379.302 535.319 379.416 535.319 379.53V383.942H548.44V379.53C548.44 379.416 548.462 379.302 548.506 379.196C548.55 379.09 548.615 378.993 548.696 378.912C548.777 378.831 548.874 378.766 548.98 378.722C549.086 378.678 549.199 378.656 549.314 378.656H570.307C570.422 378.656 570.536 378.678 570.642 378.722C570.748 378.766 570.845 378.831 570.926 378.912C571.007 378.993 571.071 379.09 571.115 379.196C571.159 379.302 571.182 379.416 571.182 379.53V383.942H584.303V379.53C584.303 379.416 584.325 379.302 584.369 379.196C584.413 379.09 584.478 378.993 584.559 378.912C584.64 378.831 584.736 378.766 584.842 378.722C584.949 378.678 585.062 378.656 585.177 378.656H606.17C606.285 378.656 606.399 378.678 606.505 378.722C606.611 378.766 606.707 378.831 606.789 378.912C606.87 378.993 606.934 379.09 606.978 379.196C607.022 379.302 607.045 379.416 607.045 379.53V383.942H620.165V379.53C620.165 379.416 620.188 379.302 620.232 379.196C620.276 379.09 620.34 378.993 620.422 378.912C620.503 378.831 620.599 378.766 620.705 378.722C620.812 378.678 620.925 378.656 621.04 378.656H642.033C642.148 378.656 642.262 378.678 642.368 378.722C642.474 378.766 642.57 378.831 642.652 378.912C642.733 378.993 642.797 379.09 642.841 379.196C642.885 379.302 642.908 379.416 642.908 379.53V383.942H656.028V379.53C656.028 379.416 656.051 379.302 656.095 379.196C656.139 379.09 656.203 378.993 656.284 378.912C656.366 378.831 656.462 378.766 656.568 378.722C656.674 378.678 656.788 378.656 656.903 378.656H677.896C678.011 378.656 678.125 378.678 678.231 378.722C678.337 378.766 678.433 378.831 678.514 378.912C678.596 378.993 678.66 379.09 678.704 379.196C678.748 379.302 678.771 379.416 678.771 379.53V383.942H719.007C724.575 383.942 729.914 386.154 733.851 390.091C737.788 394.028 740 399.367 740 404.935V414.427C740 419.995 737.788 425.335 733.851 429.272C729.914 433.209 724.575 435.42 719.007 435.42H20.9929C15.4252 435.42 10.0856 433.209 6.14862 429.272C2.21167 425.335 -6.10352e-05 419.995 -6.10352e-05 414.427V404.935C-6.10352e-05 399.367 2.21167 394.028 6.14862 390.091C10.0856 386.154 15.4252 383.942 20.9929 383.942Z" fill="#3F3D56"/>
</g>
<defs>
<clipPath id="clip0">
<rect width="1082.44" height="449.881" fill="white" transform="matrix(-1 0 0 1 1082.44 0)"/>
</clipPath>
</defs>
</svg>
